<svg xmlns="http://www.w3.org/2000/svg" viewBox="0 0 180 180">
  <rect width="180" height="180" rx="40" fill="#081014"/>
  <rect x="18" y="18" width="144" height="144" rx="32" fill="#10311f" stroke="#4ade80" stroke-width="4"/>
  <path d="M60 44h38c18 0 32 14 32 32v48c0 18-14 32-32 32H60c-18 0-32-14-32-32V76c0-18 14-32 32-32Z" fill="#4ade80"/>
  <path d="M56 58h46v22H56z" fill="#081014"/>
  <path d="M130 78h10c10 0 18 8 18 18v24h-14V96c0-2-2-4-4-4h-10z" fill="#4ade80"/>
  <circle cx="62" cy="136" r="10" fill="#081014"/>
  <circle cx="96" cy="136" r="10" fill="#081014"/>
  <path d="M84 84h10v40H84z" fill="#081014"/>
  <path d="M68 96h44v10H68z" fill="#081014"/>
</svg>
